<?xml version="1.0" encoding="UTF-8" standalone="no"?>
<svg width="550px" height="198px" viewBox="0 0 550 198" version="1.1" xmlns="http://www.w3.org/2000/svg" xmlns:xlink="http://www.w3.org/1999/xlink">
    <!-- Generator: Sketch 3.8.1 (29687) - http://www.bohemiancoding.com/sketch -->
    <title>Artboard 1</title>
    <desc>Created with Sketch.</desc>
    <defs></defs>
    <g id="Page-1" stroke="none" stroke-width="1" fill="none" fill-rule="evenodd">
        <g id="Artboard-1">
            <g id="Group">
                <g id="Grid" stroke="#EFEFEF" stroke-linecap="square">
                    <path d="M0,164 L551,164" id="Line-Copy-160"></path>
                    <path d="M0,131 L551,131" id="Line-Copy-140"></path>
                    <path d="M0,99 L551,99" id="Line-Copy-120"></path>
                    <path d="M0,66 L551,66" id="Line-Copy-100"></path>
                    <path d="M0,33 L551,33" id="Line-Copy-80"></path>
                    <path d="M516.5,0 L516.5,197.9097" id="Line-Copy-16"></path>
                    <path d="M481.5,0 L481.5,197.9097" id="Line-Copy-15"></path>
                    <path d="M446.5,0 L446.5,197.9097" id="Line-Copy-14"></path>
                    <path d="M413.5,0 L413.5,197.9097" id="Line-Copy-13"></path>
                    <path d="M378.5,0 L378.5,197.9097" id="Line-Copy-12"></path>
                    <path d="M344.5,0 L344.5,197.9097" id="Line-Copy-11"></path>
                    <path d="M309.5,0 L309.5,197.9097" id="Line-Copy-10"></path>
                    <path d="M276.5,0 L276.5,197.9097" id="Line-Copy-9"></path>
                    <path d="M241.5,0 L241.5,197.9097" id="Line-Copy-8"></path>
                    <path d="M207.5,0 L207.5,197.9097" id="Line-Copy-7"></path>
                    <path d="M172.5,0 L172.5,197.9097" id="Line-Copy-6"></path>
                    <path d="M137.5,0 L137.5,197.9097" id="Line-Copy-5"></path>
                    <path d="M104.5,0 L104.5,197.9097" id="Line-Copy-4"></path>
                    <path d="M69.5,0 L69.5,197.9097" id="Line-Copy-3"></path>
                    <path d="M35.5,0 L35.5,197.9097" id="Line-Copy-2"></path>
                </g>
                <g id="Main" transform="translate(17.000000, 35.000000)">
                    <polygon id="Rotated-Square-10" fill="#DDF4DE" transform="translate(64.997197, 64.810984) rotate(10.000000) translate(-64.997197, -64.810984) " points="121.138358 8.89938745 120.908794 120.722581 9.08560052 120.722581 8.85603648 8.89938745"></polygon>
                    <text id="SpringGrid" font-family="Bariol-Light, Bariol" font-size="92" font-weight="300" fill="#4A4A4A">
                        <tspan x="150.198" y="95">SpringGrid</tspan>
                    </text>
                    <g id="SpringPup" transform="translate(21.428018, 17.810984)" fill="#4A4A4A">
                        <g transform="translate(0.571982, 0.189016)">
                            <path d="M16.1659368,66.2960338 C11.9709885,66.5678555 8.96719838,71.6305349 6.30867147,75.6738828 C6.23961882,75.7928048 1.69940729,81.9597598 1.9238284,84.3042221 C-1.96038299,88.2116592 5.91161875,92.5268288 7.56888228,92.9685391 C11.6602516,94.0558259 16.3385684,93.5121825 20.4126746,94.1917368 C31.4265718,96.060511 20.87878,85.96913 25.1773072,83.4208015 C29.1650976,81.0593504 27.7840446,79.1735873 26.7482549,75.4530277 C26.541097,74.6885291 27.4905709,71.8683789 27.1453077,71.1718357 C25.4362547,67.6891201 22.8467804,68.6574849 19.9983587,66.635811" id="Bottom-Left"></path>
                            <path d="M71.76888,75.641089 C69.5419322,82.0458881 77.1722496,88.1618765 74.3928806,94.3797981 C73.8922489,92.2901687 67.7983528,89.1981968 65.9857208,88.3147762 C65.0880364,87.873066 66.5413118,79.1080441 62.8265622,77.1021307 C62.7229833,76.0827993 63.7415098,76.2526879 63.016457,75.0125013 C62.0151936,73.2796379 58.5798245,72.328262 59.0286667,69.6610114 C56.4737187,68.8115686 57.5017989,68.4662233 55.2204537,66.7365389 C52.9391086,65.0068544 49.6375067,65.8894852 50.1554015,62.9334241 C50.0172963,63.782867 64.0177204,65.8894852 69.7836164,62.593647 C71.5789852,64.9211204 72.7183539,72.9228719 71.76888,75.641089 Z" id="Bottom-Right"></path>
                            <path d="M61.3391617,16.5223878 C61.2701091,16.4034658 57.5203483,10.0264257 55.9005915,8.19950702 C54.2808346,6.37258836 47.41568,2.82611721 48.0292633,1.57060082 C45.8713678,-0.167173403 38.1732131,-0.0831582789 35.2730019,1.93851568 C34.6687912,1.81959369 29.9029432,6.40870896 28.2111536,10.8465167 C24.996159,13.0550678 23.9148512,13.639923 20.4790774,17.5910933 C12.5676947,24.5506168 12.3562884,27.1576769 11.0170447,33.1515574 C9.22167587,33.5423011 9.01451779,38.5553422 8.3757808,40.6619604 C6.92567522,45.3508849 9.1008336,48.9355337 11.0170445,53.0638259 C11.7420973,54.6437896 12.6327687,60.3324043 14.2640026,61.5919687 C15.8952366,62.8515332 17.5316966,64.3787021 26.22589,63.376062 C29.7689849,61.9076862 32.8376807,58.3409906 33.0448389,57.3789955 C33.705006,56.1557958 35.7434241,54.8821566 38.3491484,54.7117429 C40.9548728,54.5413292 47.6926572,55.5594821 48.1501046,54.7117429 C48.607552,53.8640037 45.4743146,53.0638269 46.2511576,48.9185448 C46.6136843,45.4059317 48.1501046,43.1882555 48.6680002,42.1060132 C49.1858959,41.023771 56.3213442,32.2020702 59.2503184,31.2671226 C61.2355817,30.1342959 61.1320017,29.4892295 61.3391609,28.4979389 C63.8785661,24.5104674 62.0493798,17.9396304 61.3391617,16.5223878 Z M47.531618,29.6205601 C46.6697895,29.4469931 41.6628529,28.9287259 42.4114402,25.6577073 C42.4114402,25.6577073 45.7950199,29.5991221 49.644705,27.9342142 C50.9672585,27.2115172 51.0602842,25.6067408 50.2661788,24.2306434 C51.3364948,23.3981894 51.2477469,25.4399949 52.4998319,26.2640541 C52.4998317,28.7198602 50.2074083,29.7255273 47.531618,29.6205601 Z M46.6170581,25.1049709 C46.5307422,24.5443386 46.2200053,24.1705838 45.6675842,23.9667175 C46.5652686,22.964375 47.4284267,24.7482049 46.6170581,25.1049709 L46.6170581,25.1049709 Z" id="Eye-Ear"></path>
                            <path d="M67.602917,2.61498016 C72.4538655,2.61498016 77.9170498,8.68461452 80.1227219,11.8637207 C82.328394,15.0428269 82.2766044,23.7830958 82.3283939,24.7684495 C82.4147097,26.2804577 83.7942622,27.7860444 83.4677626,31.4960368 C83.9984193,34.6161787 86.2233277,44.8501399 85.0214471,47.4315845 C84.0603749,44.8501399 82.9445408,45.5436967 82.7201197,44.4224322 C82.3403301,42.5026914 77.5462281,31.9857263 74.3023047,31.4960368 C73.3506566,29.5012723 74.8374627,28.6146991 74.3023047,27.4594568 C73.7153572,26.1683037 72.6782865,25.1422043 72.2639706,24.0888952 C71.3490231,21.7274441 71.0555493,19.7567367 71.0037598,16.9535753 C71.0900756,15.500232 73.572161,9.6202628 72.2639706,8.50792377 C71.9532337,8.71179005 66.7181462,5.1008613 67.602917,2.61498016 Z" id="Top-Right"></path>
                            <path d="M63.8972986,59.2767811 C63.8972988,59.2767811 60.8229723,58.7856969 59.3570871,60.0242908 C65.5804568,61.8808543 69.2229843,60.024291 71.0100202,59.0323258 C73.7587367,57.9690635 76.7499195,55.3957646 77.4488806,55.1484889 C78.4906967,54.0444953 78.7608809,54.0272244 79.0888809,53.9932467 C79.0888809,53.3816478 76.6720383,52.9059598 76.4648804,52.9739152 C74.2399388,53.2044262 72.8005638,54.2961114 72.5461426,54.6388232 C72.3259401,54.9108883 69.2196194,58.5889315 63.8972986,59.2767811 Z" id="Mouth"></path>
                            <path d="M77.1546462,51.2326156 C78.893445,50.4051001 80.087172,48.7389923 80.2770668,47.7196609 C80.9503301,44.6956444 78.6240946,41.6444774 78.1016924,41.1483352 C77.4196732,40.9581347 76.1851909,39.8475888 74.1420952,40.6928878 C74.1420952,40.6928878 72.6488157,41.7169132 72.6488157,42.0316296 C72.6488157,42.3463461 73.786603,43.0421192 73.3888493,43.6456971 C73.1866892,43.0421192 71.9806804,42.3515999 70.4341513,42.729228 C68.8876221,43.106856 67.3578422,46.2103316 68.0391388,48.8726781 C68.3562443,50.8165006 71.0606047,52.0256492 72.6488157,52.0256495 C72.6488157,52.0256495 75.4158473,52.0601311 77.1546462,51.2326156 Z M72.7501123,49.6937302 C72.3185332,49.8126521 71.2827435,48.5384879 71.1619014,47.451201 C72.0077963,47.2983013 73.5442177,48.9292316 72.7501123,49.6937302 L72.7501123,49.6937302 Z" id="Nose"></path>
                        </g>
                    </g>
                </g>
                <g id="MarkGrid" transform="translate(5.000000, 23.000000)" stroke="#979797" stroke-linecap="square" stroke-dasharray="2">
                    <path d="M9.5,133.499994 L33.5000009,0.499999996" id="Line"></path>
                    <path d="M19.5,9.5 L152.5,33.5" id="Line"></path>
                    <path d="M0.5,120.5 L134.5,143.5" id="Line"></path>
                    <path d="M120.5,153.5 L144.5,19.5" id="Line"></path>
                </g>
            </g>
        </g>
    </g>
</svg>